<svg xmlns="http://www.w3.org/2000/svg" width="99" height="32" viewBox="0 0 99 32" fill="none"><path d="M44.9422 1.77778H40.3911C40.0769 1.77778 39.8222 2.03248 39.8222 2.34667V6.89778C39.8222 7.21197 40.0769 7.46667 40.3911 7.46667H44.9422C45.2564 7.46667 45.5111 7.21197 45.5111 6.89778V2.34667C45.5111 2.03248 45.2564 1.77778 44.9422 1.77778Z" fill="#BF7056" style="fill:#BF7056;fill:color(display-p3 0.7500 0.4406 0.3375);fill-opacity:1;"></path><path d="M44.9422 24.5333H0.568889C0.2547 24.5333 0 24.788 0 25.1022V29.6533C0 29.9675 0.2547 30.2222 0.568889 30.2222H44.9422C45.2564 30.2222 45.5111 29.9675 45.5111 29.6533V25.1022C45.5111 24.788 45.2564 24.5333 44.9422 24.5333Z" fill="#BF7056" style="fill:#BF7056;fill:color(display-p3 0.7500 0.4406 0.3375);fill-opacity:1;"></path><path d="M33.5644 13.1556H0.568889C0.2547 13.1556 0 13.4103 0 13.7244V18.2756C0 18.5897 0.2547 18.8444 0.568889 18.8444H33.5644C33.8786 18.8444 34.1333 18.5897 34.1333 18.2756V13.7244C34.1333 13.4103 33.8786 13.1556 33.5644 13.1556Z" fill="#BF7056" style="fill:#BF7056;fill:color(display-p3 0.7500 0.4406 0.3375);fill-opacity:1;"></path><path d="M22.1867 1.77778H0.568889C0.2547 1.77778 0 2.03248 0 2.34667V6.89778C0 7.21197 0.2547 7.46667 0.568889 7.46667H22.1867C22.5009 7.46667 22.7556 7.21197 22.7556 6.89778V2.34667C22.7556 2.03248 22.5009 1.77778 22.1867 1.77778Z" fill="#BF7056" style="fill:#BF7056;fill:color(display-p3 0.7500 0.4406 0.3375);fill-opacity:1;"></path><path d="M61.9079 0.0142222H53.3234C53.2558 0.0142222 53.2011 0.0689828 53.2011 0.136533V0.9472C53.2011 1.01475 53.2558 1.06951 53.3234 1.06951H61.9079C61.9755 1.06951 62.0302 1.01475 62.0302 0.9472V0.136533C62.0302 0.0689828 61.9755 0.0142222 61.9079 0.0142222Z" fill="#BF7056" style="fill:#BF7056;fill:color(display-p3 0.7500 0.4406 0.3375);fill-opacity:1;"></path><path d="M62.0302 12.7218V13.5339C62.0302 13.6007 61.9762 13.6562 61.9079 13.6562H53.322C53.2551 13.6562 53.1996 13.6021 53.1996 13.5339V6.16533C53.1996 6.09849 53.2537 6.04302 53.322 6.04302H59.9524C60.0192 6.04302 60.0747 6.09707 60.0747 6.16533V6.72427C60.0747 6.79111 60.0206 6.84658 59.9524 6.84658H54.9746C54.9077 6.84658 54.8523 6.90062 54.8523 6.96889V12.48C54.8523 12.5468 54.9063 12.6023 54.9746 12.6023H61.9079C61.9748 12.6023 62.0302 12.6564 62.0302 12.7246V12.7218Z" fill="#BF7056" style="fill:#BF7056;fill:color(display-p3 0.7500 0.4406 0.3375);fill-opacity:1;"></path><path d="M70.2251 0.0142222C70.0444 0.0142222 66.5159 0.0142222 65.7891 0.0142222C65.7223 0.0142222 65.6683 0.0682667 65.6683 0.136533V13.5339C65.6683 13.6007 65.7223 13.6562 65.7906 13.6562H70.0018C79.6516 13.8226 80.1394 0.213333 70.2265 0.0156444L70.2251 0.0142222ZM67.3209 12.7303V0.938667C67.3209 0.871822 67.3749 0.816355 67.4418 0.816355C68.0562 0.816355 69.5381 0.817778 69.9947 0.809244C69.9989 0.809244 70.0018 0.809244 70.006 0.809244C77.6405 1.32409 77.4756 12.8697 69.5595 12.8512H67.4404C67.3735 12.8512 67.318 12.7972 67.318 12.7289L67.3209 12.7303Z" fill="#BF7056" style="fill:#BF7056;fill:color(display-p3 0.7500 0.4406 0.3375);fill-opacity:1;"></path><path d="M81.5175 0.0128H80.1493C80.0708 0.0128 80.0071 0.0764751 80.0071 0.155022V13.5125C80.0071 13.5911 80.0708 13.6548 80.1493 13.6548H81.5175C81.5961 13.6548 81.6597 13.5911 81.6597 13.5125V0.155022C81.6597 0.0764751 81.5961 0.0128 81.5175 0.0128Z" fill="#BF7056" style="fill:#BF7056;fill:color(display-p3 0.7500 0.4406 0.3375);fill-opacity:1;"></path><path d="M86.693 1.1904V5.92071C86.693 5.98756 86.747 6.04302 86.8153 6.04302H92.699C92.7659 6.04302 92.8213 6.09707 92.8213 6.16533V6.72427C92.8213 6.79111 92.7673 6.84658 92.699 6.84658H86.8153C86.7484 6.84658 86.693 6.90062 86.693 6.96889V13.5353C86.693 13.6021 86.6389 13.6576 86.5707 13.6576H85.1627C85.0958 13.6576 85.0404 13.6036 85.0404 13.5353V0.136533C85.0404 0.0696889 85.0944 0.0142222 85.1627 0.0142222H93.7287C93.7956 0.0142222 93.851 0.0682667 93.851 0.136533V0.948622C93.851 1.01547 93.797 1.07093 93.7287 1.07093H86.8139C86.747 1.07093 86.6915 1.12498 86.6915 1.19324L86.693 1.1904Z" fill="#BF7056" style="fill:#BF7056;fill:color(display-p3 0.7500 0.4406 0.3375);fill-opacity:1;"></path><path d="M98.4078 0H97.0396C96.9611 0 96.8974 0.0636751 96.8974 0.142222V13.5125C96.8974 13.5911 96.9611 13.6548 97.0396 13.6548H98.4078C98.4864 13.6548 98.55 13.5911 98.55 13.5125V0.142222C98.55 0.0636751 98.4864 0 98.4078 0Z" fill="#BF7056" style="fill:#BF7056;fill:color(display-p3 0.7500 0.4406 0.3375);fill-opacity:1;"></path><path d="M64.027 31.9047C62.2677 31.8905 60.2795 31.8748 60.1358 31.8734H60.1259C55.872 31.8692 52.6635 28.8228 52.6635 24.7879C52.6919 20.0462 56.5561 17.8859 60.133 17.8859C63.7099 17.8859 67.574 20.0462 67.6039 24.7879C67.6039 27.008 66.5998 29.0347 64.8491 30.3502C64.7808 30.4014 64.7552 30.4853 64.7808 30.565C64.8064 30.6446 64.8789 30.6958 64.9628 30.6958H67.1204C67.1488 30.6958 67.1716 30.7186 67.1716 30.747V31.8777C67.1716 31.8919 67.1659 31.9047 67.1573 31.9132C67.1474 31.9232 67.136 31.9275 67.1218 31.9275C67.1218 31.9275 65.4094 31.9132 64.027 31.9033V31.9047ZM60.1316 18.4988C56.0626 18.6965 54.3161 21.8368 54.39 24.8619C54.4654 27.9396 56.4366 31.2092 59.9452 31.2092C60.7502 31.2092 61.6036 31.0357 62.4811 30.6916C65.5346 29.2139 66.2855 25.7664 65.6953 23.1879C65.1762 20.9209 63.451 18.4988 60.1714 18.4988H60.1316Z" fill="#BF7056" style="fill:#BF7056;fill:color(display-p3 0.7500 0.4406 0.3375);fill-opacity:1;"></path><path d="M60.133 17.957C63.6772 17.957 67.5029 20.0946 67.5328 24.7879C67.5328 26.9852 66.5387 28.992 64.8064 30.2933C64.714 30.363 64.677 30.4782 64.714 30.5877C64.7509 30.6972 64.8491 30.7669 64.9643 30.7669H67.1019V31.8564C66.6851 31.8521 65.4165 31.8421 64.074 31.8322C62.326 31.818 60.3548 31.8037 60.1472 31.8009H60.1273C58.1262 31.7995 56.2688 31.0955 54.8978 29.8197C53.504 28.5227 52.7374 26.7349 52.7374 24.7865C52.7659 20.0932 56.5931 17.9556 60.1358 17.9556M59.9467 31.2804C60.7602 31.2804 61.622 31.104 62.5081 30.7584H62.5138L62.5195 30.7541C65.6028 29.2622 66.3637 25.7778 65.7664 23.1708C65.2402 20.8782 63.4951 18.4277 60.1742 18.4277H60.1273C56.0128 18.6283 54.2464 21.8041 54.3204 24.8633C54.3957 27.9737 56.394 31.2804 59.9467 31.2804ZM60.133 17.8148C56.3769 17.8148 52.6208 20.1387 52.5924 24.7879C52.5924 28.9493 55.9644 31.9403 60.1259 31.9445C60.133 31.946 66.1817 31.9929 67.1218 32C67.1886 32 67.2427 31.946 67.2427 31.8777V30.747C67.2427 30.6802 67.1886 30.6247 67.1204 30.6247H64.9628C64.8462 30.6247 64.7964 30.4768 64.8903 30.4057C66.5884 29.13 67.6736 27.146 67.6736 24.7865C67.6452 20.1387 63.8891 17.8133 60.1316 17.8133L60.133 17.8148ZM59.9467 31.1381C53.2324 31.1381 51.9865 18.9653 60.133 18.57C60.1458 18.57 60.16 18.57 60.1728 18.57C66.4917 18.57 67.8571 28.0121 62.4569 30.6261C61.5524 30.9803 60.7147 31.1381 59.9467 31.1381Z" fill="#BF7056" style="fill:#BF7056;fill:color(display-p3 0.7500 0.4406 0.3375);fill-opacity:1;"></path><path d="M75.7845 31.8336C73.974 31.8336 72.6073 31.3771 71.7212 30.4768C70.2876 29.019 70.3275 26.6795 70.3573 24.9728C70.3616 24.7467 70.3644 24.5333 70.3644 24.3342C70.3644 24.3044 70.3644 19.9879 70.3644 18.1333C70.3644 18.1049 70.3872 18.0836 70.4156 18.0836H71.8236C71.8521 18.0836 71.8748 18.1063 71.8748 18.1348V25.3909C71.8748 27.877 72.2802 31.1808 75.7845 31.1808C78.2307 31.1808 80.4267 30.6603 80.4267 24.3698V18.1348C80.4267 18.1063 80.4494 18.085 80.4779 18.085H81.1605C81.189 18.085 81.2117 18.1077 81.2117 18.1362V24.3371C81.2117 26.3083 81.1022 28.325 80.31 29.7259C79.4951 31.1666 78.0572 31.8364 75.7859 31.8364L75.7845 31.8336Z" fill="#BF7056" style="fill:#BF7056;fill:color(display-p3 0.7500 0.4406 0.3375);fill-opacity:1;"></path><path d="M81.1392 18.1547V24.3342C81.1392 26.2955 81.0311 28.3022 80.2475 29.6875C79.4468 31.1026 78.0288 31.7625 75.7845 31.7625C73.994 31.7625 72.6443 31.3131 71.7724 30.427C70.3602 28.9906 70.4 26.6695 70.4284 24.9742C70.4327 24.7481 70.4356 24.5348 70.4356 24.3342V24.192C70.4356 23.3017 70.4356 18.5159 70.4356 18.1547H71.8037V25.3895C71.8037 27.9054 72.2162 31.2505 75.7845 31.2505C77.1499 31.2505 78.2293 31.067 79.0656 30.171C80.0299 29.1385 80.4978 27.2398 80.4978 24.3669C80.4978 24.3442 80.4978 19.0919 80.4978 18.1532H81.1392M81.1591 18.0124H80.4764C80.4096 18.0124 80.3541 18.0665 80.3541 18.1333C80.3541 19.0108 80.3541 24.3684 80.3541 24.3684C80.3541 30.5991 78.1596 31.1083 75.7831 31.1083C72.5788 31.1083 71.9445 28.3236 71.9445 25.3895V18.1333C71.9445 18.0665 71.8905 18.011 71.8222 18.011H70.4142C70.3474 18.011 70.2919 18.0651 70.2919 18.1319C70.2919 19.008 70.2919 24.3328 70.2919 24.3328C70.2919 26.8843 69.6917 31.9033 75.7831 31.9033C80.6841 31.9033 81.28 28.7019 81.28 24.3328V18.1319C81.28 18.0651 81.226 18.0096 81.1577 18.0096L81.1591 18.0124Z" fill="#BF7056" style="fill:#BF7056;fill:color(display-p3 0.7500 0.4406 0.3375);fill-opacity:1;"></path><path d="M93.7543 30.5977H85.1698C85.1022 30.5977 85.0475 30.6524 85.0475 30.72V31.5307C85.0475 31.5982 85.1022 31.653 85.1698 31.653H93.7543C93.8219 31.653 93.8766 31.5982 93.8766 31.5307V30.72C93.8766 30.6524 93.8219 30.5977 93.7543 30.5977Z" fill="#BF7056" style="fill:#BF7056;fill:color(display-p3 0.7500 0.4406 0.3375);fill-opacity:1;"></path><path d="M93.8766 18.9454V18.1333C93.8766 18.0665 93.8226 18.011 93.7543 18.011H85.1684C85.1015 18.011 85.046 18.0651 85.046 18.1333V25.5019C85.046 25.5687 85.1001 25.6242 85.1684 25.6242H91.7988C91.8656 25.6242 91.9211 25.5701 91.9211 25.5019V24.9429C91.9211 24.8761 91.867 24.8206 91.7988 24.8206H86.821C86.7541 24.8206 86.6987 24.7666 86.6987 24.6983V19.1872C86.6987 19.1204 86.7527 19.0649 86.821 19.0649H93.7543C93.8212 19.0649 93.8766 19.0108 93.8766 18.9426V18.9454Z" fill="#BF7056" style="fill:#BF7056;fill:color(display-p3 0.7500 0.4406 0.3375);fill-opacity:1;"></path></svg>